<svg width="92" height="92" viewBox="0 0 92 92" fill="none" xmlns="http://www.w3.org/2000/svg">
<path d="M69.7188 9.25391L70.707 9.34375L71.5156 9.88281L71.9648 10.7812L72.5039 15.0938L72.6836 17.25V23.2695L72.4141 26.2344L71.9648 29.5586L72.5039 29.4688H73.3125L74.0312 29.8281L74.4805 30.5469L74.5703 31.2656L74.3008 33.5117L73.8516 35.8477L73.2227 37.9141L72.4141 39.8906L71.3359 42.0469L70.3477 43.7539L70.0781 44.3828H70.7969L71.875 44.6523L72.5039 45.1016L72.8633 45.8203V46.5391L72.1445 47.9766L70.5273 50.4023L69.6289 51.6602L68.6406 52.918L67.5625 54.1758L66.4844 55.3438L65.6758 56.1523L64.6875 56.9609L63.8789 57.6797L63.6094 57.9492L64.8672 58.7578L65.4961 59.4766L65.6758 59.8359V60.6445L65.3164 61.2734L64.1484 62.2617L62.7109 63.3398L61.0938 64.5078L58.8477 65.9453L56.9609 67.0234L54.5352 68.2812L52.1992 69.2695L49.9531 69.9883L47.7969 70.5273L45.5508 70.8867L44.6523 70.9766H40.5195L38.9922 70.7969L36.5664 70.2578L34.1406 69.4492L32.3438 68.6406L30.9961 67.832L30.6367 68.2812L29.5586 69.9883L28.4805 71.6953L27.3125 73.6719L25.6055 76.5469L24.5273 78.2539L23.8984 78.9727L23.1797 79.4219L22.8203 79.5117H21.9219L21.293 79.2422L19.1367 78.0742L18.418 77.4453L17.9688 76.6367L17.8789 75.918L18.1484 75.1094L18.8672 74.0312L20.0352 72.4141L20.8438 71.2461L21.7422 69.9883L22.8203 68.4609L23.7188 67.2031L24.8867 65.5859L25.875 64.2383L25.7852 63.8789L24.7969 62.7109L23.7188 61.0938L22.9102 59.6562L22.1914 58.2188L21.6523 56.9609L21.0234 54.8945L20.4844 52.4688L20.125 49.8633L20.0352 48.6055V46.7188L20.2148 44.0234L20.5742 41.7773L21.1133 39.6211L21.9219 37.1953L22.2812 36.6562L22.9102 36.2969H23.7188L24.5273 36.6562L25.4258 37.1953L25.9648 35.3984L26.9531 33.1523L28.1211 30.9961L29.3789 29.0195L30.6367 27.3125L31.625 26.1445L32.2539 25.4258L33.0625 24.8867L33.332 24.7969H33.9609L34.6797 25.1562L35.2188 25.875L35.668 27.2227V27.6719L36.1172 27.2227L37.1055 26.1445L38.1836 24.9766L41.2383 21.9219L41.957 21.293L43.3047 20.125L44.832 18.957L46.2695 17.8789L47.168 17.3398L47.707 17.1602L48.4258 17.25L49.0547 17.7891L49.4141 18.5977L49.5938 19.1367L51.75 17.7891L53.9961 16.4414L55.8828 15.3633L58.3984 14.0156L60.4648 12.9375L63.4297 11.5L65.8555 10.5117L68.1016 9.70312L69.7188 9.25391ZM67.832 14.1953L66.2148 14.7344L63.0703 16.082L61.3633 16.8906L59.9258 17.6094L57.5 18.8672L55.0742 20.3047L52.6484 21.9219L51.0312 23.0898L49.5039 24.2578L48.3359 25.1562L47.6172 25.5156L46.8984 25.4258L46.4492 25.0664L46.1797 24.6172L45.9102 23.1797L45.5508 23.3594L44.6523 24.0781L43.4844 25.1562L42.5859 25.9648V26.1445H42.4062L41.957 26.5938L40.8789 27.7617L39.8906 28.8398L39.082 29.8281L38.2734 30.7266L37.2852 31.9844L36.2969 33.332L35.9375 33.7812L35.4883 33.9609H34.7695L34.1406 33.6016L33.5117 32.7031L33.0625 31.625L32.8828 31.2656L31.9844 32.5234L31.0859 34.1406L30.0078 36.3867L29.1992 38.543L28.75 40.25L28.4805 42.0469L28.1211 42.7656L27.582 43.125H26.5938L25.5156 42.5859L24.7969 41.957L24.6172 42.2266L24.168 44.9219L24.0781 45.9102V48.5156L24.2578 50.2227L24.7969 53.0078L25.4258 55.1641L25.9648 56.6016L26.7734 58.3086L27.6719 59.6562L28.3906 60.5547L28.8398 60.1055L30.0977 58.3984L31.5352 56.5117L32.5234 55.2539L33.5117 53.9961L34.4102 52.8281L35.3086 51.6602L36.207 50.4922L37.375 49.0547L38.0938 48.1562L38.543 47.6172V47.4375H38.7227L39.3516 46.6289L40.3398 45.4609L41.1484 44.4727L41.957 43.5742L42.7656 42.5859L43.6641 41.5977L44.4727 40.6094L45.6406 39.3516L46.2695 38.6328L47.3477 37.375L48.6953 35.9375L49.6836 34.8594L50.4023 34.1406L51.0312 33.4219L55.2539 29.1992L55.9727 28.5703L57.5 27.1328L58.3984 26.3242L59.5664 25.4258L59.9258 25.2461H60.7344L61.1836 25.6953V26.5039L60.5547 27.582L59.8359 28.5703L58.9375 29.8281L57.6797 31.5352L56.332 33.332L54.9844 35.1289L54.0859 36.2969L53.0078 37.7344L51.5703 39.6211L50.4922 41.0586L49.5938 42.2266L48.5156 43.6641L47.2578 45.3711L46 46.9883L44.7422 48.6953L43.6641 50.1328L42.8555 51.2109L42.0469 52.2891L40.9688 53.7266L39.5312 55.6133L38.8125 56.6016L37.5547 58.3086L36.3867 59.9258L35.2188 61.543L34.0508 63.25L33.2422 64.3281V64.5078L34.9492 65.3164L36.6562 65.9453L38.2734 66.3945L40.5195 66.7539L41.6875 66.8438H43.5742L45.5508 66.6641L47.8867 66.2148L50.1328 65.5859L52.2891 64.7773L53.457 64.2383L54.9844 63.5195L57.1406 62.2617L58.4883 61.3633L59.4766 60.6445V60.4648L57.7695 59.3867L57.1406 58.668L57.0508 57.8594L57.3203 57.2305L57.5 56.8711L57.8594 56.6914L59.4766 55.793L60.5547 55.0742L61.7227 54.1758L62.9805 53.0977L64.7773 51.3008L65.5859 50.3125L66.4844 49.1445L67.0234 48.3359V48.1562L65.2266 47.7969L64.3281 47.3477L63.8789 46.8086L63.7891 46.5391V45.9102L64.1484 45.1016L65.0469 44.1133L65.9453 42.9453L67.1133 41.3281L67.9219 39.9805L69 37.7344L69.6289 35.8477L69.8984 34.7695V34.3203L68.7305 34.5898H67.9219L67.293 34.3203L66.9336 33.6914V32.5234L67.7422 29.1992L68.1914 26.5039L68.4609 23.5391L68.5508 21.293V19.2266L68.4609 16.2617L68.2812 14.375L68.1914 14.1953H67.832Z" fill="white"/>
</svg>
