<svg width="58" height="71" viewBox="0 0 58 71" fill="none" xmlns="http://www.w3.org/2000/svg">
<path d="M52.7188 0.253906L53.707 0.34375L54.5156 0.882812L54.9648 1.78125L55.5039 6.09375L55.6836 8.25V14.2695L55.4141 17.2344L54.9648 20.5586L55.5039 20.4688H56.3125L57.0312 20.8281L57.4805 21.5469L57.5703 22.2656L57.3008 24.5117L56.8516 26.8477L56.2227 28.9141L55.4141 30.8906L54.3359 33.0469L53.3477 34.7539L53.0781 35.3828H53.7969L54.875 35.6523L55.5039 36.1016L55.8633 36.8203V37.5391L55.1445 38.9766L53.5273 41.4023L52.6289 42.6602L51.6406 43.918L50.5625 45.1758L49.4844 46.3438L48.6758 47.1523L47.6875 47.9609L46.8789 48.6797L46.6094 48.9492L47.8672 49.7578L48.4961 50.4766L48.6758 50.8359V51.6445L48.3164 52.2734L47.1484 53.2617L45.7109 54.3398L44.0938 55.5078L41.8477 56.9453L39.9609 58.0234L37.5352 59.2812L35.1992 60.2695L32.9531 60.9883L30.7969 61.5273L28.5508 61.8867L27.6523 61.9766H23.5195L21.9922 61.7969L19.5664 61.2578L17.1406 60.4492L15.3438 59.6406L13.9961 58.832L13.6367 59.2812L12.5586 60.9883L11.4805 62.6953L10.3125 64.6719L8.60547 67.5469L7.52734 69.2539L6.89844 69.9727L6.17969 70.4219L5.82031 70.5117H4.92188L4.29297 70.2422L2.13672 69.0742L1.41797 68.4453L0.96875 67.6367L0.878906 66.918L1.14844 66.1094L1.86719 65.0312L3.03516 63.4141L3.84375 62.2461L4.74219 60.9883L5.82031 59.4609L6.71875 58.2031L7.88672 56.5859L8.875 55.2383L8.78516 54.8789L7.79688 53.7109L6.71875 52.0938L5.91016 50.6562L5.19141 49.2188L4.65234 47.9609L4.02344 45.8945L3.48438 43.4688L3.125 40.8633L3.03516 39.6055V37.7188L3.21484 35.0234L3.57422 32.7773L4.11328 30.6211L4.92188 28.1953L5.28125 27.6562L5.91016 27.2969H6.71875L7.52734 27.6562L8.42578 28.1953L8.96484 26.3984L9.95312 24.1523L11.1211 21.9961L12.3789 20.0195L13.6367 18.3125L14.625 17.1445L15.2539 16.4258L16.0625 15.8867L16.332 15.7969H16.9609L17.6797 16.1562L18.2188 16.875L18.668 18.2227V18.6719L19.1172 18.2227L20.1055 17.1445L21.1836 15.9766L24.2383 12.9219L24.957 12.293L26.3047 11.125L27.832 9.95703L29.2695 8.87891L30.168 8.33984L30.707 8.16016L31.4258 8.25L32.0547 8.78906L32.4141 9.59766L32.5938 10.1367L34.75 8.78906L36.9961 7.44141L38.8828 6.36328L41.3984 5.01562L43.4648 3.9375L46.4297 2.5L48.8555 1.51172L51.1016 0.703125L52.7188 0.253906ZM50.832 5.19531L49.2148 5.73438L46.0703 7.08203L44.3633 7.89062L42.9258 8.60938L40.5 9.86719L38.0742 11.3047L35.6484 12.9219L34.0312 14.0898L32.5039 15.2578L31.3359 16.1562L30.6172 16.5156L29.8984 16.4258L29.4492 16.0664L29.1797 15.6172L28.9102 14.1797L28.5508 14.3594L27.6523 15.0781L26.4844 16.1562L25.5859 16.9648V17.1445H25.4062L24.957 17.5938L23.8789 18.7617L22.8906 19.8398L22.082 20.8281L21.2734 21.7266L20.2852 22.9844L19.2969 24.332L18.9375 24.7812L18.4883 24.9609H17.7695L17.1406 24.6016L16.5117 23.7031L16.0625 22.625L15.8828 22.2656L14.9844 23.5234L14.0859 25.1406L13.0078 27.3867L12.1992 29.543L11.75 31.25L11.4805 33.0469L11.1211 33.7656L10.582 34.125H9.59375L8.51562 33.5859L7.79688 32.957L7.61719 33.2266L7.16797 35.9219L7.07812 36.9102V39.5156L7.25781 41.2227L7.79688 44.0078L8.42578 46.1641L8.96484 47.6016L9.77344 49.3086L10.6719 50.6562L11.3906 51.5547L11.8398 51.1055L13.0977 49.3984L14.5352 47.5117L15.5234 46.2539L16.5117 44.9961L17.4102 43.8281L18.3086 42.6602L19.207 41.4922L20.375 40.0547L21.0938 39.1562L21.543 38.6172V38.4375H21.7227L22.3516 37.6289L23.3398 36.4609L24.1484 35.4727L24.957 34.5742L25.7656 33.5859L26.6641 32.5977L27.4727 31.6094L28.6406 30.3516L29.2695 29.6328L30.3477 28.375L31.6953 26.9375L32.6836 25.8594L33.4023 25.1406L34.0312 24.4219L38.2539 20.1992L38.9727 19.5703L40.5 18.1328L41.3984 17.3242L42.5664 16.4258L42.9258 16.2461H43.7344L44.1836 16.6953V17.5039L43.5547 18.582L42.8359 19.5703L41.9375 20.8281L40.6797 22.5352L39.332 24.332L37.9844 26.1289L37.0859 27.2969L36.0078 28.7344L34.5703 30.6211L33.4922 32.0586L32.5938 33.2266L31.5156 34.6641L30.2578 36.3711L29 37.9883L27.7422 39.6953L26.6641 41.1328L25.8555 42.2109L25.0469 43.2891L23.9688 44.7266L22.5312 46.6133L21.8125 47.6016L20.5547 49.3086L19.3867 50.9258L18.2188 52.543L17.0508 54.25L16.2422 55.3281V55.5078L17.9492 56.3164L19.6562 56.9453L21.2734 57.3945L23.5195 57.7539L24.6875 57.8438H26.5742L28.5508 57.6641L30.8867 57.2148L33.1328 56.5859L35.2891 55.7773L36.457 55.2383L37.9844 54.5195L40.1406 53.2617L41.4883 52.3633L42.4766 51.6445V51.4648L40.7695 50.3867L40.1406 49.668L40.0508 48.8594L40.3203 48.2305L40.5 47.8711L40.8594 47.6914L42.4766 46.793L43.5547 46.0742L44.7227 45.1758L45.9805 44.0977L47.7773 42.3008L48.5859 41.3125L49.4844 40.1445L50.0234 39.3359V39.1562L48.2266 38.7969L47.3281 38.3477L46.8789 37.8086L46.7891 37.5391V36.9102L47.1484 36.1016L48.0469 35.1133L48.9453 33.9453L50.1133 32.3281L50.9219 30.9805L52 28.7344L52.6289 26.8477L52.8984 25.7695V25.3203L51.7305 25.5898H50.9219L50.293 25.3203L49.9336 24.6914V23.5234L50.7422 20.1992L51.1914 17.5039L51.4609 14.5391L51.5508 12.293V10.2266L51.4609 7.26172L51.2812 5.375L51.1914 5.19531H50.832Z" fill="white"/>
<path d="M29.0161 53.92C29.0877 53.2959 30.0434 51.9075 30.9041 50.9723C31.4613 50.367 32.1672 49.9252 32.3868 49.7667C33.0682 49.2747 30.8727 50.9077 30.4996 51.3285C30.3491 51.4981 30.341 51.6301 30.3883 51.7034C30.5548 51.8005 30.8683 51.8013 31.1931 51.7651C31.3271 51.7529 31.3986 51.7529 31.4723 51.7529" stroke="white" stroke-width="2" stroke-linecap="round"/>
<path d="M29.1606 43.9511C29.0407 44.0226 28.8485 44.2393 27.9651 45.0509C27.1689 45.7823 25.6989 47.1975 24.425 48.2796C23.1511 49.3618 22.126 50.0769 21.3834 50.5645C20.6408 51.0521 20.2117 51.2905 20.0264 51.3657C19.9193 51.4091 20.4869 50.8181 21.8771 49.715C22.7515 49.0213 24.0302 48.1351 24.7168 47.6327C25.4035 47.1303 25.475 47.0588 25.345 47.1173C25.2149 47.1758 24.8812 47.3665 23.6008 48.4064C22.3203 49.4463 20.1033 51.3295 18.842 52.3593C17.3786 53.5541 16.8822 53.6787 16.5094 53.751C16.3523 53.7814 16.2559 53.7755 16.2425 53.7398C16.0924 53.3383 17.1675 53.2468 17.5287 53.1138C18.2021 52.866 19.261 52.6197 19.5276 52.7151C19.9556 52.8682 18.7828 53.293 18.7344 53.4732C18.7124 53.5552 18.7813 53.6296 18.8655 53.7022C19.0542 53.865 19.883 53.9915 21.4072 54.0165C23.2062 54.0459 24.4384 53.5357 24.8118 53.3555C24.9379 53.2947 24.8754 53.1991 24.8151 53.1503C24.698 53.0557 24.0613 53.0532 22.9683 53.1128C21.8859 53.1718 21.0489 53.6051 20.5913 53.9417C20.424 54.0647 20.4674 54.183 20.6585 54.2798C21.9077 54.9127 23.0196 54.594 23.0207 54.5825C23.0836 53.911 21.2953 54.2812 20.1221 54.425C19.3464 54.52 18.855 55.0029 18.7709 55.147C18.7299 55.2172 18.7105 55.2911 18.7579 55.4114C18.9908 56.0034 19.4077 56.0626 19.516 56.0991C19.5525 56.1114 19.5528 56.0164 19.5171 55.9676C19.3515 55.7419 18.9287 55.7506 18.4234 55.6061C18.2595 55.5592 18.0402 55.5815 18.0012 55.6292C17.7248 55.967 19.0421 56.0142 20.7423 56.1345C21.9398 56.2192 23.8251 56.2071 24.9502 56.1955C26.3863 56.1808 26.8714 56.0872 27.3388 56.0514C28.7437 55.9439 29.4467 55.6061 30.1452 55.3659C30.9021 55.1056 31.5676 54.8837 32.2485 54.7042C32.8288 54.5512 33.9067 54.3578 35.0195 54.0923C36.1324 53.8268 37.2528 53.5169 38.0088 53.2738C39.5962 52.7634 40.0412 52.429 40.4288 52.247C40.8042 52.0707 41.5568 51.5636 42.6776 50.9842C42.9916 50.8219 43.102 50.5978 43.2103 50.4536C43.2997 50.3348 42.3652 50.2358 40.838 50.2597C39.8091 50.2757 39.1086 50.3803 38.496 50.4042C37.9034 50.4272 37.3265 50.5248 36.0587 50.5963C35.0759 50.6518 33.4083 50.8109 32.5963 50.8369C31.7843 50.8629 31.8797 50.7675 31.9646 50.6946C32.1144 50.5658 32.8383 50.1434 33.7539 49.6012C34.0258 49.4403 33.9067 49.512 32.856 50.0256C31.8053 50.5392 29.8267 51.4928 28.5451 52.0794C26.7574 52.8977 26.1273 53.1008 26.1381 53.0777C26.3138 52.703 26.8714 52.5482 27.1719 52.4041C27.4158 52.2871 28.3096 51.8526 29.5973 51.335C30.1832 51.0994 30.4356 51.055 30.5566 51.0305C31.0266 50.9351 28.3573 51.8453 27.1639 52.0537C27.0438 52.0747 26.9472 52.0895 26.9219 52.066C26.8504 51.9996 27.1603 51.8258 27.6039 51.6102C27.8844 51.4738 28.262 51.2515 30.7947 50.1159C33.3274 48.9803 37.9998 46.9302 40.4902 45.8502C42.9806 44.7703 43.1475 44.7226 43.3527 44.6503C43.5578 44.5781 43.7962 44.4827 43.8832 44.4336C43.9703 44.3845 43.8988 44.3845 43.8143 44.4203C43.3991 44.5959 42.8181 45.0563 42.0097 45.4309C41.5721 45.6337 40.9876 45.9477 40.5874 46.2017C40.0794 46.5239 42.5956 44.6749 43.444 44.0172C44.1342 43.4822 45.4129 42.6204 46.1115 42.1422C47.2607 41.3554 47.7737 40.7733 47.8459 40.6172C47.8829 40.5374 47.8705 40.4374 47.799 40.4121C47.5956 40.3402 47.294 40.5551 46.4098 40.7708C45.6763 40.9496 44.3337 41.1294 43.4076 41.3115C42.4815 41.4935 42.0047 41.6365 39.9116 42.4492C37.8184 43.2619 34.1234 44.7399 32.0292 45.6086C29.5332 46.6439 29.0653 46.9367 28.8493 46.9847C28.2958 47.1078 27.8141 47.2018 27.537 47.1661C27.4444 47.1541 27.4746 47.0588 27.6418 46.8431C27.809 46.6275 28.1189 46.2699 30.6625 44.8223C33.206 43.3746 37.9738 40.8477 40.3822 39.534C42.7906 38.2204 42.6953 38.1965 42.5866 38.1842C42.3598 38.1586 41.8306 38.2435 41.0139 38.4114C40.6 38.4965 40.1973 38.6271 38.6416 39.201C37.0859 39.7749 34.3922 40.8 32.3966 41.483C30.401 42.166 29.1852 42.4759 28.1774 42.7786C25.4856 43.5871 25.1412 43.8543 24.8154 43.9865C24.7194 44.0254 24.6356 44.1418 24.6341 44.1432C24.5402 44.2371 24.9216 43.8795 26.115 43.211C27.2054 42.6001 29.3109 41.4935 32.1914 40.4038C35.0719 39.3141 38.6716 38.289 40.6094 37.749C42.7083 37.1641 43.029 37.1129 43.4841 36.993C44.8208 36.6408 45.124 36.6549 45.4252 36.595C45.7932 36.5217 46.1353 36.5105 46.4846 36.4505C46.7839 36.3991 47.2651 36.3183 47.7246 36.2699C48.1565 36.2244 48.5669 36.077 48.8807 36.0171C48.9531 36.0033 49.0249 36.0048 49.0259 36.0286C49.027 36.0525 48.9555 36.1001 48.9067 36.089C48.858 36.0778 48.8341 36.0062 48.8219 35.9217C48.7466 35.404 49.1462 34.6828 49.1827 34.3325C49.2386 33.7959 49.675 32.8075 49.8682 31.963C50.1735 30.6289 50.302 30.1549 50.4581 29.6145C50.7779 28.5071 51.0721 27.9169 51.1931 27.494C51.2865 27.1676 51.4333 26.8319 51.6023 26.5307C51.8318 26.1218 51.5547 25.4839 51.4351 25.1935C51.354 24.9967 51.0497 25.481 50.8698 25.6851C50.6455 25.9397 50.3757 26.155 48.5268 27.8494C46.7889 29.4419 43.3642 32.4521 41.3459 34.1667C39.3275 35.8813 38.8031 36.1912 37.9846 36.5892C36.0912 37.51 34.8682 38.0029 34.7122 38.099C34.6292 38.1501 34.5323 38.1951 34.6381 38.1243C34.744 38.0535 35.0539 37.8628 35.4757 37.6334C35.8976 37.4041 36.4221 37.1418 38.7901 36.2558C41.158 35.3698 45.3537 33.868 47.5985 33.0824C49.9996 32.2421 50.2775 32.2245 50.3743 32.2123C50.7107 32.1696 49.7501 32.585 49.4009 32.8014C49.1246 32.9725 48.7633 32.9708 48.102 33.1026C47.9203 33.1388 47.7534 33.1629 44.9022 33.938C42.0509 34.7132 36.5203 36.2388 33.254 37.0963C29.9877 37.9538 29.1534 38.0968 28.4733 38.254C26.6198 38.6821 26.1533 39.0381 25.899 39.0153C25.8048 39.0069 26.193 38.6588 27.1867 37.9278C28.1803 37.1967 29.8729 36.0048 30.8402 35.2954C31.8074 34.586 31.9982 34.3953 33.7174 33.2005C35.4367 32.0057 38.6788 29.8125 40.3847 28.6707C42.0906 27.529 42.1622 27.5052 42.0679 27.6359C41.445 28.4999 41.0092 28.7072 40.1608 29.3411C39.4723 29.8555 38.1919 30.6663 37.4695 31.1558C36.5936 31.7492 36.3375 31.9349 36.2046 31.9833C36.1161 32.0155 36.7659 31.6011 37.3915 31.12C38.5457 30.2324 40.0203 29.2859 40.0326 29.43C40.0705 29.8747 39.5168 30.5118 38.3519 32.5529C37.8707 33.3961 37.4934 33.8123 37.3485 33.9453C37.2795 34.0086 37.5158 33.6462 38.3985 32.2617C39.2136 30.9835 40.8546 28.5888 41.8328 27.1696C43.0702 25.3742 43.5109 24.9053 43.7391 24.6889C44.105 24.3422 44.4016 24.0623 44.6909 23.8214C44.8149 23.7181 45.3139 23.3904 46.0472 22.7894C46.6105 22.3277 47.169 21.825 47.6267 21.4151C47.7596 21.296 47.7506 21.4342 47.7144 21.5433C47.58 21.9494 47.4139 22.278 47.0054 23.2384C46.6498 24.0744 46.3303 24.4206 46.1375 24.7464C46.0878 24.8302 46.0414 24.9262 45.993 25.0111C45.9021 25.1706 46.2292 24.7406 46.9502 23.6841C48.1571 21.9154 48.3025 21.1756 48.6041 20.7989C48.8858 20.4469 48.2331 21.7723 47.9438 22.1454C47.5895 22.6024 47.2694 23.048 46.801 23.5537C46.3538 24.0364 45.8261 24.4206 45.3681 24.8063C44.8144 25.2727 44.3091 25.4565 43.491 26.0456C43.0222 26.3832 42.4078 26.6369 41.8046 26.7698C41.1793 26.9076 40.6957 26.9742 40.5512 26.9872C40.2982 27.01 40.526 26.47 40.5382 26.3974C40.5821 26.1382 40.2868 26.9258 39.8776 27.2866C39.6101 27.5225 39.2278 27.6482 38.9139 27.8292C38.6382 27.9881 38.3364 28.1539 38.0471 28.4067C37.78 28.6401 37.2788 29.0424 36.8793 29.37C36.799 29.4359 36.6995 29.5019 36.6503 29.5029C36.6012 29.504 36.6012 29.4325 36.935 28.9189C37.2687 28.4053 37.9362 27.4517 39.1382 26.0308C40.3403 24.6098 42.0567 22.7504 42.9647 21.7448C44.2385 20.3343 44.835 19.6326 45.2562 19.1988C45.7603 18.6795 46.4243 18.1387 46.9534 17.646C47.3367 17.2892 47.7491 17.0305 47.9293 16.9583C48.0763 16.8994 48.8508 17.6966 49.9697 18.8882C50.6576 19.6207 51.0475 19.6543 51.3011 19.763C51.3365 19.7781 51.3379 19.6803 51.3022 19.6196C51.137 19.3393 50.833 19.2938 50.7127 19.21C50.3663 18.9686 50.4711 18.38 50.3512 17.1801C50.2818 16.486 50.2789 15.9484 50.2067 15.5045C50.1161 14.9482 50.0152 13.8116 49.7624 12.5358C49.6522 11.9795 49.6526 11.734 49.6165 11.112C49.4892 8.91935 49.532 8.58004 49.5919 8.20657C49.613 8.07548 49.6042 7.88366 49.5804 7.74966C49.5565 7.61565 49.5088 7.54414 49.4366 7.56689C49.2271 7.63288 49.1469 7.927 48.8963 8.44098C48.6876 8.86893 48.2403 9.59861 47.6259 10.8256C47.0116 12.0526 46.2249 13.7451 45.6647 14.8435C45.1044 15.9419 44.7945 16.3948 44.4442 16.8308C43.3334 18.213 43.0558 18.4255 42.8752 18.5226C42.4721 18.7395 42.886 17.6821 43.2093 16.3154C43.5521 14.8657 43.6806 13.8051 43.7164 13.4211C43.8056 12.463 44.0649 11.76 44.6295 10.3412C44.8687 9.74003 45.2439 9.54226 45.7008 9.26595C46.2739 8.91937 46.9523 8.48397 47.5768 8.00394C48.6744 7.16025 48.7605 6.74951 49.0371 6.53207C49.4124 6.23718 50.0579 5.83497 50.4223 5.66448C50.5296 5.61428 50.0651 6.23878 48.6178 7.65069C47.5201 8.72153 45.621 10.4452 44.3766 11.6516C43.1323 12.858 42.584 13.4778 41.2765 15.4182C39.969 17.3585 37.9189 20.6006 36.7078 22.4734C35.4967 24.3462 35.1868 24.7514 34.9556 25.0317C34.3981 25.7076 33.4791 26.8449 32.8582 27.6952C32.3331 28.4141 31.7655 29.184 31.089 29.9707C30.5725 30.5713 29.9798 31.1641 29.8837 31.2367C29.4247 31.5836 30.1467 29.4823 30.4465 28.7863C30.6151 28.3948 30.8655 27.9473 31.9061 26.4862C32.9467 25.0252 34.7822 22.5698 35.9066 21.138C37.031 19.7063 37.3886 19.3725 38.1092 18.5689C38.8298 17.7652 39.9025 16.5018 40.5028 15.7794C41.2125 14.9254 41.5828 14.4567 42.1116 13.8918C42.7955 13.1612 43.0536 12.8898 43.3545 12.3007C43.5251 11.9666 43.56 11.7333 43.5246 11.6249C43.3937 11.2244 42.7675 11.8033 41.4947 12.5124C41.0082 12.7834 40.1474 13.2214 38.9219 14.038C37.7935 14.79 37.1806 15.4153 36.8804 15.6916C36.5782 15.9698 36.1461 16.3291 35.4035 17.084C34.1759 18.3319 33.2313 19.1955 33.0268 19.4961C32.7496 19.9035 32.2943 20.6367 31.4997 21.6968C30.8939 22.505 30.6061 23.2409 30.4024 23.6725C30.2761 23.9402 30.0795 24.2949 29.719 24.8605C29.3585 25.4261 28.8341 26.189 28.4209 26.8203C27.2801 28.5634 27.1148 29.1407 26.91 29.7894C26.6951 30.4702 26.2985 31.5173 25.6711 32.7147C25.4326 33.1698 25.2366 33.475 25.1037 33.7643C24.9663 34.0633 24.7555 34.3419 24.5742 34.655C24.2929 35.1408 24.0562 35.4977 22.7743 37.3203C21.8311 38.6614 20.9507 39.3979 20.7224 39.7825C20.5416 40.0872 20.1813 40.5046 19.6533 41.1529C19.0632 41.8774 18.3999 42.5988 17.8115 43.3674C16.8361 44.6416 16.448 44.9364 16.1587 45.3821C15.9012 45.7789 15.6288 46.0445 15.2922 46.4296C14.8478 46.9378 14.6175 47.4171 14.3647 47.8263C14.1704 48.1407 13.8474 48.3562 13.6061 48.6217C13.3651 48.8869 12.8852 48.7911 12.4868 48.851C12.3317 48.8744 12.1375 48.8395 11.9212 48.7795C11.5472 48.6759 11.3667 48.1669 11.2338 47.8411C11.0808 47.4661 10.7903 46.845 10.4172 46.159C10.2786 45.9043 10.2586 45.8307 10.2463 46.0919C10.1682 47.7523 10.5216 48.5223 10.691 49.0302C10.8584 49.5321 11.0518 49.801 11.3765 50.0065C11.5181 50.0961 11.8926 50.0914 12.4334 50.0318C13.4142 49.9237 13.9876 48.9153 14.3387 48.3475C14.7876 47.6215 14.6406 46.4101 14.5207 45.7596C14.4596 45.428 14.3531 44.7746 14.041 43.9568C13.5668 42.7143 12.066 42.6031 11.1049 42.6024C10.2719 42.6017 9.80205 43.587 9.4889 44.1053C9.03099 44.8632 9.07822 45.4883 9.17394 45.9123C9.22149 46.123 9.43869 46.2143 9.59473 46.2743C10.0496 46.4491 10.6415 46.3595 11.0872 46.1793C11.5433 45.9948 12.0371 45.4955 12.3882 44.9281C12.6462 44.5111 12.6425 42.9036 12.4626 41.763C12.2583 40.4671 11.2237 40.0039 10.6819 39.7619C10.2894 39.5866 9.92197 39.6167 9.69406 39.6406C9.38787 39.6726 9.03199 39.8804 8.69535 40.1206C8.20693 40.4691 8.116 41.4877 8.0788 42.4673C8.05047 43.2131 8.45119 43.8774 8.91966 44.2866C9.51111 44.8033 10.5923 44.8179 11.482 44.8779C12.7819 44.9655 13.4573 44.7226 14.1443 44.3982C14.5898 44.1879 14.832 43.712 15.0484 43.3042C15.3184 42.7953 15.2908 42.0526 15.1716 41.1767C15.0168 40.0396 14.33 39.1624 13.9211 38.6451C13.5124 38.1281 12.9343 37.8368 11.7316 37.4987C11.333 37.3867 11.0063 37.4734 10.7058 37.5334C10.0145 37.6713 9.17791 38.8886 8.86223 39.6742C8.53835 40.4801 8.86006 41.154 9.16129 41.6741C9.40415 42.0934 10.039 42.2404 10.8687 42.4095C11.7078 42.5805 12.7797 42.1711 13.483 41.9053C14.0288 41.6989 14.3733 40.826 14.616 39.7897C14.7963 39.0203 14.5929 38.3424 14.3777 37.7913C14.0159 36.865 13.3909 36.1753 12.9462 35.8506C12.1464 35.2664 11.0301 35.619 10.6574 35.7032C9.89416 35.8755 9.72981 36.3645 9.30902 36.9883C8.42942 38.2923 8.64479 38.8683 8.72858 39.1822C8.81023 39.488 9.26893 39.5676 9.75004 39.6767C10.2166 39.7825 10.666 39.6413 10.9185 39.5452C11.11 39.4723 11.3639 39.2093 11.6767 38.8608C12.0973 38.392 11.8479 37.6446 11.5596 36.8146C11.3753 36.2837 11.0056 35.8863 10.3456 35.4406C9.57832 34.9223 9.1519 34.8981 8.86259 34.7052C8.78999 34.6568 8.71847 34.6091 8.7889 34.7514C9.25715 35.6976 9.86996 36.0496 10.4847 36.569C10.9159 36.9333 11.2916 37.1837 11.7854 37.4846C12.2495 37.7674 13.1438 38.0983 14.5752 38.4118C15.4655 38.6068 16.7326 38.773 17.2752 38.9178C17.9137 39.0883 18.3219 39.2555 18.7449 39.1237C18.9049 39.0738 19.0703 38.9435 19.2386 38.7632C19.5983 38.3781 19.6728 37.477 19.6854 36.9096C19.6947 36.4907 19.17 35.9354 18.6398 35.5244C18.2893 35.2527 16.6777 34.6857 15.4378 34.3317C14.7937 34.1479 13.6856 33.8405 13.0524 33.5613C12.7696 33.4366 12.4749 33.3565 12.0776 33.2962C11.9862 33.2823 11.9447 33.1889 11.9559 33.1163C12.0222 32.6861 12.7595 32.3943 13.3851 32.0096C14.1322 31.5502 14.8552 31.2616 15.5021 31.2013C16.5735 31.1014 17.5273 31.3085 18.2468 31.548C20.0306 32.1417 20.8228 32.7035 21.5607 32.8862C22.1292 33.027 22.5862 32.8747 22.7303 32.8147C22.8842 32.7507 23.0196 32.6341 23.128 32.5261C23.3493 32.3055 23.3569 31.8886 23.2977 31.5274C23.2199 31.0528 22.0408 30.5898 20.9073 30.3232C19.3579 29.9588 18.0626 29.6247 17.5699 29.4325C16.8642 29.1573 16.5925 28.9745 16.387 28.7098C16.1918 28.4584 16.0146 28.0369 15.7972 27.6984C15.75 27.625 15.7011 27.5543 15.6646 27.4817C15.6281 27.4091 15.6043 27.3376 15.6754 27.2054C16.0862 26.4423 16.5896 26.0373 16.819 25.736C16.9541 25.5586 17.1198 25.3626 17.2286 25.23C17.3628 25.0663 16.737 25.4334 16.3642 25.6494C15.5862 26.1002 15.0293 26.6585 14.7017 27.0461C14.3984 27.4049 13.7781 28.1264 13.4133 28.6231C13.2086 28.9017 13.172 29.1414 13.124 29.2855C13.0998 29.3581 13.0759 29.4296 13.2663 29.4665C13.4566 29.5033 13.8619 29.5033 14.7977 29.3245C15.7336 29.1457 17.1878 28.7881 18.0799 28.592C19.2505 28.3347 19.7912 28.2998 20.2835 28.2276C20.7948 28.1525 21.2367 28.1792 21.8591 28.143C24.1213 28.0117 24.8971 28.3229 25.103 28.3475C25.4016 28.3831 24.3712 28.2752 22.4623 27.6879C21.436 27.3722 20.8329 27.0732 20.1091 26.8312C19.6666 26.6832 19.2899 26.5184 19.1079 26.2536C18.896 25.9455 18.7105 25.6038 18.5303 25.3384C18.3427 25.0621 17.8451 25.0014 17.3395 24.8204C16.9335 24.6751 16.5925 24.5911 16.3032 24.4592C16.2293 24.4255 16.1591 24.3989 16.158 24.3866C16.117 23.922 18.1471 24.9262 19.1046 25.0483C19.3091 25.0744 19.5716 25.1198 20.4457 25.2159C21.3198 25.312 22.7978 25.455 23.738 25.5645C25.4825 25.7675 25.7639 25.843 25.9568 25.8433C26.2246 25.8438 25.4071 25.2672 23.8099 24.6416C22.4722 24.1177 21.4614 23.9915 21.1179 23.6769C20.8771 23.4564 22.0061 23.6274 22.9062 23.6996C24.329 23.8138 25.4743 23.9886 26.0139 24.0847C27.4102 24.3333 28.1941 24.2775 28.7857 24.2663C28.8788 24.2646 28.8717 24.1591 28.8359 24.0984C28.7585 23.967 28.5357 23.8456 28.3075 23.6534C28.0928 23.4727 26.932 22.7909 25.2232 21.8882C24.5894 21.5535 24.4203 21.4862 24.3701 21.4375C24.3158 21.3848 24.7273 21.388 25.5061 21.4721C27.6806 21.7072 28.1948 21.6293 28.5683 21.5935C28.6846 21.5824 28.6318 21.4862 28.5596 21.4375C28.185 21.1846 27.5742 20.956 27.1394 20.7032C26.7515 20.4777 26.3693 20.2336 26.0793 20.0288C26.0159 19.9841 26.0067 19.897 26.0421 19.8482C26.3362 19.443 27.3994 19.7034 28.5181 19.6669C29.3084 19.6411 29.688 19.5343 29.9668 19.4267C30.4969 19.2221 28.6362 18.1893 27.8625 17.6218C27.7303 17.5249 27.6927 17.4409 27.7158 17.404C27.7818 17.2989 28.9338 17.5579 30.5223 17.8468C31.2473 17.9787 31.4715 17.9689 31.5441 17.9812C31.7935 18.0234 31.0403 17.7053 30.5592 17.5124C30.3391 17.4242 30.0773 17.3195 29.8722 17.2353C29.7953 17.2038 30.1467 17.1505 30.2796 17.1147C30.5927 17.0305 29.74 16.7661 29.5944 16.5014C29.5212 16.3683 29.498 16.2121 29.5095 16.1752C29.6474 15.7359 30.6227 16.8586 32.4283 17.3058C32.8793 17.4175 33.2941 17.3672 33.5148 17.3314C33.7784 17.2887 33.7839 16.8644 33.9995 16.4295C34.2121 16.0007 34.697 15.7794 34.9867 15.4781C35.3731 15.0763 36.0421 14.5065 36.5275 13.9857C37.1031 13.3681 37.3944 13.082 38.0554 12.4217C38.5773 11.9003 38.9591 11.5173 39.7046 11.0719C40.1023 10.8343 40.5715 10.7226 41.1013 10.5894C42.274 10.2944 42.5956 10.0956 42.9449 9.9273C43.1102 9.84761 43.2465 9.75826 43.331 9.7579C43.6501 9.75653 42.839 10.3109 41.8241 10.9202C40.9387 11.4518 39.2596 12.3639 37.5537 13.3911C35.8478 14.4184 34.1552 15.515 33.176 16.1276C32.1968 16.7401 31.9823 16.8355 31.4665 17.1349C30.1269 17.9126 29.019 18.6653 28.526 19.0381C27.976 19.4539 27.4543 19.7019 27.0429 19.763C26.629 19.8244 26.0587 19.9909 25.514 20.0043C25.2843 19.7518 25.1636 19.5351 25.1275 19.3909C25.1152 19.3183 25.1152 19.2468 25.1875 19.1731" stroke="white" stroke-width="5" stroke-linecap="round"/>
</svg>
